<svg width="252" height="249" viewBox="0 0 252 249" fill="none" xmlns="http://www.w3.org/2000/svg">
<mask id="mask0_417_1269" style="mask-type:luminance" maskUnits="userSpaceOnUse" x="0" y="0" width="252" height="249">
<path fill-rule="evenodd" clip-rule="evenodd" d="M0 0H251.67V248.906H0V0Z" fill="white"/>
</mask>
<g mask="url(#mask0_417_1269)">
<path fill-rule="evenodd" clip-rule="evenodd" d="M7.80043 128.445C30.4485 74.7957 12.9659 7.64942 87.3224 7.8979C147.068 8.09765 175.589 22.2067 217.505 45.6204C258.068 68.2792 259.216 133.106 202.198 191.536C145.179 249.966 102.415 248.297 81.4523 234.942C60.4906 221.585 -8.38273 166.784 7.80043 128.445Z" fill="#F4F5F7"/>
</g>
<path fill-rule="evenodd" clip-rule="evenodd" d="M166.003 49.2058C198.268 29.2494 208.974 12.7249 215.507 24.0661C219.928 31.7433 174.966 86.5227 166.003 92.3553C163.315 64.6258 166.003 49.2058 166.003 49.2058Z" fill="white"/>
<path fill-rule="evenodd" clip-rule="evenodd" d="M166.003 49.2058C198.268 29.2494 208.974 12.7249 215.507 24.0661C219.928 31.7433 174.966 86.5227 166.003 92.3553C163.315 64.6258 166.003 49.2058 166.003 49.2058Z" stroke="#0A0F37" stroke-width="2"/>
<path fill-rule="evenodd" clip-rule="evenodd" d="M76.5706 132.919C79.4558 68.8873 79.4558 35.9304 81.378 23.6889C83.3015 11.4488 89.072 5.79897 110.228 4.85713C131.384 3.91529 149.654 0.147919 163.116 0.147919C176.579 0.147919 188.119 -1.7345 188.119 34.0479C188.119 69.8291 180.978 194.58 180.978 203.055C180.978 211.53 182.896 232.813 159.817 232.813C136.738 232.813 115.815 232.482 98.2995 235.003C82.0894 237.337 76.5706 228.965 76.5706 205.424V132.919Z" fill="#0A1236"/>
<path fill-rule="evenodd" clip-rule="evenodd" d="M76.0875 128.045C78.7772 66.364 78.7772 34.6162 80.5686 22.8249C82.3613 11.0323 87.7393 5.59055 107.456 4.68275C127.173 3.77621 144.202 0.147532 156.751 0.147532C169.298 0.147532 180.053 -1.66555 180.053 32.8018C180.053 67.2718 172.882 203.332 172.882 211.497C172.882 219.66 172.882 226.916 151.373 226.916C129.863 226.916 111.896 225.837 96.6604 226.743C81.4232 227.65 76.0875 220.568 76.0875 197.89V128.045Z" fill="#4285F4"/>
<path fill-rule="evenodd" clip-rule="evenodd" d="M88.1871 31.0172L174.226 25.5754L166.161 197.012L81.9133 201.547L88.1871 31.0172Z" fill="white"/>
<path fill-rule="evenodd" clip-rule="evenodd" d="M130.39 213.245C130.39 217.318 127.128 220.621 123.103 220.621C119.077 220.621 115.816 217.318 115.816 213.245C115.816 209.172 119.077 205.868 123.103 205.868C127.128 205.868 130.39 209.172 130.39 213.245Z" fill="white"/>
<path fill-rule="evenodd" clip-rule="evenodd" d="M88.1239 31.3962L81.8121 200.462L166.57 195.966L174.684 26.0012L88.1239 31.3962Z" fill="white"/>
<mask id="mask1_417_1269" style="mask-type:luminance" maskUnits="userSpaceOnUse" x="81" y="26" width="94" height="175">
<path fill-rule="evenodd" clip-rule="evenodd" d="M88.1239 31.3962L81.8121 200.462L166.57 195.966L174.684 26.0012L88.1239 31.3962Z" fill="white"/>
</mask>
<g mask="url(#mask1_417_1269)">
</g>
<path fill-rule="evenodd" clip-rule="evenodd" d="M40.1586 224.163C52.9946 214.178 75.5798 189 68.2783 150.606C60.9754 112.209 55.4498 108.085 64.7152 93.8332C73.9807 79.5801 83.2712 58.0844 90.6755 72.9361C98.0786 87.7878 90.9776 114.557 79.4825 118.107C89.1942 127.359 126.499 160.57 101.445 192.862C85.3027 210.925 68.6593 207.122 64.328 241.625C62.3578 240.345 40.1586 224.163 40.1586 224.163Z" fill="white"/>
<path d="M40.1586 224.163C52.9946 214.178 75.5798 189 68.2783 150.606C60.9754 112.209 55.4498 108.085 64.7152 93.8332C73.9807 79.5801 83.2712 58.0844 90.6755 72.9361C98.0786 87.7878 90.9776 114.557 79.4825 118.107C89.1942 127.359 126.499 160.57 101.445 192.862C85.3027 210.925 70.2346 205.251 64.328 241.625" stroke="#0A0F37" stroke-width="2"/>
<path fill-rule="evenodd" clip-rule="evenodd" d="M185.879 93.1479C177.357 102.565 155.631 117.672 145.593 124.444C134.925 131.643 139.905 139.756 163.993 131.475C177.779 126.734 187.352 120.865 190.273 114.344C195.142 103.473 185.879 93.1479 185.879 93.1479Z" fill="white"/>
<path fill-rule="evenodd" clip-rule="evenodd" d="M185.879 93.1479C177.357 102.565 155.631 117.672 145.593 124.444C134.925 131.643 139.905 139.756 163.993 131.475C177.779 126.734 187.352 120.865 190.273 114.344C195.142 103.473 185.879 93.1479 185.879 93.1479Z" stroke="#0A0F37" stroke-width="2"/>
<path fill-rule="evenodd" clip-rule="evenodd" d="M184.625 121.127C176.384 127.601 158.682 134.968 146.798 134.961C139.957 138.506 135.144 147.49 147.785 146.89C160.424 146.288 183.305 146.684 188.789 129.411C192.311 118.321 190.165 114.621 189.675 115.504C188.472 117.672 186.655 119.532 184.625 121.127Z" fill="white"/>
<path fill-rule="evenodd" clip-rule="evenodd" d="M184.625 121.127C176.384 127.601 158.682 134.968 146.798 134.961C139.957 138.506 135.144 147.49 147.785 146.89C160.424 146.288 183.305 146.684 188.789 129.411C192.311 118.321 190.165 114.621 189.675 115.504C188.472 117.672 186.655 119.532 184.625 121.127Z" stroke="#0A0F37" stroke-width="2"/>
<path fill-rule="evenodd" clip-rule="evenodd" d="M152.966 146.696C170.002 146.707 180.64 141.59 184.75 136.628C189.83 137.93 188.119 152.717 170.365 153.972C151.285 155.32 152.966 146.696 152.966 146.696Z" fill="white"/>
<path fill-rule="evenodd" clip-rule="evenodd" d="M152.966 146.696C170.002 146.707 180.64 141.59 184.75 136.628C189.83 137.93 188.119 152.717 170.365 153.972C151.285 155.32 152.966 146.696 152.966 146.696Z" stroke="#0A0F37" stroke-width="2"/>
<path fill-rule="evenodd" clip-rule="evenodd" d="M148.114 75.9487C148.114 86.7266 139.389 95.464 128.626 95.464C117.863 95.464 109.138 86.7266 109.138 75.9487C109.138 65.1707 117.863 56.4333 128.626 56.4333C139.389 56.4333 148.114 65.1707 148.114 75.9487Z" fill="#4285F4"/>
<path fill-rule="evenodd" clip-rule="evenodd" d="M142.865 75.9487C142.865 86.7266 139.39 95.464 128.627 95.464C117.864 95.464 109.138 86.7266 109.138 75.9487C109.138 65.1707 117.864 56.4333 128.627 56.4333C139.39 56.4333 142.865 65.1707 142.865 75.9487Z" fill="#4285F4"/>
<path d="M138.544 65.3752L141.478 67.9675L127.451 84.1582L116.182 75.2945L118.577 72.1887L126.942 78.7682L138.544 65.3752Z" fill="white"/>
</svg>
