<svg width="361" height="250" viewBox="0 0 361 250" fill="none" xmlns="http://www.w3.org/2000/svg">
<path fill-rule="evenodd" clip-rule="evenodd" d="M54.3855 128.4C78.6616 71.2559 59.9223 -0.26394 139.624 0.000732434C203.664 0.213483 234.236 15.2416 279.165 40.1803C322.644 64.3148 323.874 133.364 262.757 195.6C201.64 257.836 155.802 256.058 133.332 241.833C110.863 227.606 37.0391 169.235 54.3855 128.4Z" fill="#F4F5F7"/>
<path fill-rule="evenodd" clip-rule="evenodd" d="M23.9936 222.965H64.035V130.268H23.9936V222.965Z" fill="#EAECF4"/>
<path fill-rule="evenodd" clip-rule="evenodd" d="M127.63 222.965H167.672V192.457H127.63V222.965Z" fill="#D8DBEA"/>
<path fill-rule="evenodd" clip-rule="evenodd" d="M41.6589 222.965H81.7004V167.816H41.6589V222.965Z" fill="#D8DBEA"/>
<path fill-rule="evenodd" clip-rule="evenodd" d="M59.3243 222.965H100.543V145.522H59.3243V222.965Z" fill="white"/>
<path fill-rule="evenodd" clip-rule="evenodd" d="M59.3243 224.138H100.543V145.522H59.3243V224.138Z" stroke="black" stroke-width="2"/>
<path fill-rule="evenodd" clip-rule="evenodd" d="M111.143 224.138H145.296V160.776H111.143V224.138Z" fill="white"/>
<path fill-rule="evenodd" clip-rule="evenodd" d="M111.143 224.138H145.296V160.776H111.143V224.138Z" stroke="black" stroke-width="2"/>
<path fill-rule="evenodd" clip-rule="evenodd" d="M87.5889 224.138H121.742V177.203H87.5889V224.138Z" fill="white"/>
<path fill-rule="evenodd" clip-rule="evenodd" d="M87.5889 224.138H121.742V177.203H87.5889V224.138Z" stroke="black" stroke-width="1.723"/>
<path fill-rule="evenodd" clip-rule="evenodd" d="M80.5227 178.377H127.63V172.51H80.5227V178.377Z" fill="white"/>
<path fill-rule="evenodd" clip-rule="evenodd" d="M80.5227 178.377H127.63V172.51H80.5227V178.377Z" stroke="black" stroke-width="2"/>
<path fill-rule="evenodd" clip-rule="evenodd" d="M94.655 191.284H101.721V184.243H94.655V191.284Z" fill="white"/>
<path fill-rule="evenodd" clip-rule="evenodd" d="M94.655 191.284H101.721V184.243H94.655V191.284Z" stroke="black" stroke-width="2"/>
<path fill-rule="evenodd" clip-rule="evenodd" d="M107.61 191.284H114.676V184.243H107.61V191.284Z" fill="white"/>
<path fill-rule="evenodd" clip-rule="evenodd" d="M107.61 191.284H114.676V184.243H107.61V191.284Z" stroke="black" stroke-width="2"/>
<path fill-rule="evenodd" clip-rule="evenodd" d="M94.655 204.191H101.721V197.15H94.655V204.191Z" fill="white"/>
<path fill-rule="evenodd" clip-rule="evenodd" d="M94.655 204.191H101.721V197.15H94.655V204.191Z" stroke="black" stroke-width="2"/>
<path fill-rule="evenodd" clip-rule="evenodd" d="M107.61 204.191H114.676V197.15H107.61V204.191Z" fill="white"/>
<path fill-rule="evenodd" clip-rule="evenodd" d="M107.61 204.191H114.676V197.15H107.61V204.191Z" stroke="black" stroke-width="2"/>
<path fill-rule="evenodd" clip-rule="evenodd" d="M94.655 215.925H101.721V208.884H94.655V215.925Z" fill="white"/>
<path fill-rule="evenodd" clip-rule="evenodd" d="M94.655 215.925H101.721V208.884H94.655V215.925Z" stroke="black" stroke-width="2"/>
<path fill-rule="evenodd" clip-rule="evenodd" d="M107.61 215.925H114.676V208.884H107.61V215.925Z" fill="white"/>
<path fill-rule="evenodd" clip-rule="evenodd" d="M107.61 215.925H114.676V208.884H107.61V215.925Z" stroke="black" stroke-width="2"/>
<path d="M59.3243 159.016H82.8781" stroke="black" stroke-width="2"/>
<path d="M71.69 150.216V158.429" stroke="black" stroke-width="2"/>
<path d="M91.1219 159.016H100.543" stroke="black" stroke-width="2"/>
<path d="M59.3243 167.23H74.0987H92.2996" stroke="black" stroke-width="2"/>
<path fill-rule="evenodd" clip-rule="evenodd" d="M73.9476 172.51L74.1431 166.643L73.9476 172.51Z" fill="white"/>
<path d="M73.9471 172.51L74.1437 166.643" stroke="black" stroke-width="2"/>
<path d="M86.4112 187.177H79.345" stroke="black" stroke-width="2"/>
<path d="M59.3243 195.39H68.2379H87.5888" stroke="black" stroke-width="2"/>
<path d="M68.157 199.497V194.804" stroke="black" stroke-width="2"/>
<path d="M69.9235 212.991H86.4112" stroke="black" stroke-width="2"/>
<path d="M137.641 163.123V224.138" stroke="black" stroke-width="2"/>
<path d="M142.94 184.83H138.229" stroke="black" stroke-width="2"/>
<path d="M131.163 211.818H138.23" stroke="black" stroke-width="2"/>
<path d="M125.864 163.123V172.51" stroke="black" stroke-width="2"/>
<path d="M125.864 222.965V178.376" stroke="black" stroke-width="2"/>
<path d="M132.341 190.697H126.453" stroke="black" stroke-width="2"/>
<path d="M130.575 142.002V160.776" stroke="black" stroke-width="2"/>
<path fill-rule="evenodd" clip-rule="evenodd" d="M250.447 220.634H290.451V128.353H250.447V220.634Z" fill="#EAECF4"/>
<path fill-rule="evenodd" clip-rule="evenodd" d="M277.508 220.634H297.51V149.379H277.508V220.634Z" fill="#D8DBEA"/>
<path fill-rule="evenodd" clip-rule="evenodd" d="M298.687 224.138H333.984V196.103H298.687V224.138Z" fill="#D8DBEA"/>
<path fill-rule="evenodd" clip-rule="evenodd" d="M298.687 197.271H341.043V187.927H298.687V197.271Z" fill="#EAECF4"/>
<path fill-rule="evenodd" clip-rule="evenodd" d="M211.62 220.634H251.624V156.387H211.62V220.634Z" fill="#D8DBEA"/>
<path fill-rule="evenodd" clip-rule="evenodd" d="M199.854 224.138H297.51V190.263H199.854V224.138Z" fill="white"/>
<path fill-rule="evenodd" clip-rule="evenodd" d="M199.854 224.138H297.51V190.263H199.854V224.138Z" stroke="black" stroke-width="2"/>
<path fill-rule="evenodd" clip-rule="evenodd" d="M191.618 190.263H305.746V180.918H191.618V190.263Z" fill="white"/>
<path fill-rule="evenodd" clip-rule="evenodd" d="M191.618 190.263H305.746V180.918H191.618V190.263Z" stroke="black" stroke-width="2"/>
<path d="M199.854 207.2H222.209" stroke="black" stroke-width="2"/>
<path d="M275.155 207.2H296.333" stroke="black" stroke-width="2"/>
<path d="M231.622 206.032H263.389" stroke="black" stroke-width="2"/>
<path d="M239.269 203.112V219.465" stroke="black" stroke-width="2"/>
<path d="M265.742 215.377H230.445" stroke="black" stroke-width="2"/>
<path d="M280.45 197.271V215.961" stroke="black" stroke-width="2"/>
<path d="M0.0472412 223.884C4.39991 224.09 4.16138 224.079 360.201 223.884" stroke="black" stroke-width="2"/>
<path fill-rule="evenodd" clip-rule="evenodd" d="M211.994 234.378C211.994 236.477 198.732 238.179 182.372 238.179C166.012 238.179 152.751 236.477 152.751 234.378C152.751 232.279 166.012 230.577 182.372 230.577C198.732 230.577 211.994 232.279 211.994 234.378Z" fill="#D8DBEA"/>
<path fill-rule="evenodd" clip-rule="evenodd" d="M181.196 140.287C160.055 140.287 142.916 123.503 142.916 102.799C142.916 82.0955 160.055 65.3127 181.196 65.3127C202.335 65.3127 219.474 82.0955 219.474 102.799C219.474 123.503 202.335 140.287 181.196 140.287ZM181.196 23.6602C137.803 22.4554 101.631 55.9283 100.401 98.4238C100.366 99.6313 100.361 100.842 100.384 102.049C100.384 167.694 175.241 228.424 178.388 230.923C179.979 232.257 182.326 232.257 183.917 230.923C187.235 228.008 262.006 161.197 262.006 102.049C262.822 59.5454 228.3 24.4415 184.898 23.6414C183.665 23.6199 182.429 23.6253 181.196 23.6602Z" fill="#4285F4"/>
<path fill-rule="evenodd" clip-rule="evenodd" d="M181.196 140.287C160.055 140.287 142.916 123.503 142.916 102.799C142.916 82.0955 160.055 65.3127 181.196 65.3127C202.335 65.3127 219.474 82.0955 219.474 102.799C219.474 123.503 202.335 140.287 181.196 140.287ZM181.196 24.7656C137.803 23.5621 114.527 58.4912 113.298 100.985C113.262 102.194 113.258 103.404 113.28 104.613C113.28 170.257 175.241 228.424 178.388 230.923C179.979 232.257 182.326 232.257 183.917 230.923C187.235 228.008 262.006 161.197 262.006 102.049C262.822 59.5454 228.3 25.5468 184.898 24.7481C183.665 24.7266 182.429 24.7306 181.196 24.7656Z" fill="#4285F4"/>
<path fill-rule="evenodd" clip-rule="evenodd" d="M219.474 102.8C219.474 124.246 200.916 141.631 178.024 141.631C155.132 141.631 136.572 124.246 136.572 102.8C136.572 81.3535 155.132 63.9683 178.024 63.9683C200.916 63.9683 219.474 81.3535 219.474 102.8Z" fill="#4285F4"/>
<path fill-rule="evenodd" clip-rule="evenodd" d="M219.474 102.799C219.474 123.503 202.337 140.286 181.196 140.286C160.055 140.286 142.916 123.503 142.916 102.799C142.916 82.0956 160.055 65.3127 181.196 65.3127C202.337 65.3127 219.474 82.0956 219.474 102.799Z" fill="#F9F9F9"/>
</svg>
