<svg width="265" height="259" viewBox="0 0 265 259" fill="none" xmlns="http://www.w3.org/2000/svg">
<path d="M57.5291 156.929C64.6161 190.627 89.1264 219.337 119.548 236.138C135.051 244.701 152.862 250.557 170.467 248.204C186.919 246.007 201.806 236.735 213.112 224.734C224.417 212.731 232.464 198.105 239.299 183.169C245.948 168.639 251.669 152.927 249.796 137.09C248.132 123.023 240.528 110.162 230.818 99.7379C221.109 89.3136 209.324 81.0249 197.635 72.8187C181.091 61.2035 163.861 49.2921 143.917 45.5574C115.889 40.3092 95.799 57.2802 78.3654 76.5916C59.0246 98.0165 51.6589 129.015 57.5291 156.929Z" fill="#DFEDF9"/>
<path d="M211.449 149.529C212.697 144.029 215.436 138.63 214.584 133.025C214.081 129.718 212.343 126.573 211.967 123.257C211.409 118.339 213.877 113.654 216.29 109.231C218.674 104.861 221.057 100.491 223.441 96.1207C224.571 94.0502 225.734 91.9389 227.611 90.3155C229.488 88.692 232.244 87.6184 234.918 88.1177C238.912 88.8641 241.044 92.5402 242.581 95.7675C245.289 101.457 248.041 107.33 248 113.399C247.957 119.575 245.007 125.519 245.444 131.695C245.662 134.776 246.719 137.794 247.087 140.868C248.111 149.43 243.296 158.172 234.981 162.861C230.748 165.247 220.227 169.157 215.51 165.5C210.938 161.956 210.413 154.095 211.449 149.529Z" fill="#CADBF1"/>
<path d="M241.949 135.046C238.495 139.072 233.817 142.066 228.733 143.547C229.072 139.027 229.439 134.513 229.88 130.019C230.275 125.98 230.734 121.93 231.222 117.878C235.709 116.563 239.748 114.048 242.906 110.584C243.04 110.437 243.029 110.209 242.884 110.075C242.737 109.941 242.512 109.95 242.379 110.097C239.422 113.34 235.509 115.802 231.319 117.092C232.279 109.211 233.39 101.333 234.68 93.5513C234.723 93.2907 234.547 93.0432 234.287 93.0007C234.031 92.9583 233.781 93.1331 233.738 93.3945C233.014 97.7634 232.358 102.167 231.737 106.58C228.782 103.887 226.647 100.292 225.719 96.395C225.674 96.2014 225.477 96.0838 225.288 96.1287C225.096 96.1753 224.977 96.3689 225.023 96.5617C226.018 100.745 228.346 104.6 231.581 107.419L231.617 107.436C230.574 114.923 229.662 122.443 228.93 129.926C228.794 131.318 228.684 132.716 228.558 134.111C224.705 132.028 221.416 128.805 219.273 124.975C219.177 124.801 218.958 124.741 218.786 124.838C218.614 124.934 218.552 125.154 218.65 125.327C220.907 129.364 224.399 132.756 228.489 134.897C227.797 142.665 227.248 150.469 226.818 158.282C222.868 156.221 219.357 153.289 216.642 149.749C216.52 149.593 216.296 149.564 216.139 149.684C215.984 149.805 215.954 150.031 216.074 150.188C218.918 153.896 222.613 156.954 226.772 159.069C225.815 176.746 226.347 184.189 225.941 201.503C225.935 201.757 226.126 201.97 226.375 201.992L226.407 201.994C226.67 202 226.89 201.79 226.895 201.526C227.415 179.38 227.012 166.866 228.677 144.316C233.993 142.824 238.89 139.714 242.491 135.516C242.621 135.365 242.604 135.138 242.453 135.008C242.306 134.882 242.079 134.896 241.949 135.046Z" fill="#DFEDF9"/>
<path d="M26.8111 44.9672C28.3991 50.7227 30.4188 56.448 30.6634 62.4156C31.1243 73.6013 25.3534 84.0507 23.5138 95.0962C20.1947 115.026 31.5026 136.627 49.9946 144.79C68.4848 152.951 92.4256 146.493 103.886 129.845C115.347 113.195 112.591 88.1583 97.4497 74.777C91.1075 69.1723 82.9997 65.4979 77.82 58.8067C73.4794 53.2012 71.6843 46.0974 69.8809 39.2415C66.3301 25.739 57.8342 9.69197 40.9786 11.7397C25.1613 13.6617 23.514 33.0155 26.8111 44.9672Z" fill="#CADBF1"/>
<path d="M85.9213 81.5416C85.5974 81.427 85.2397 81.6022 85.1246 81.9306C81.8355 91.4983 75.6992 100.18 67.8132 106.542L56.1404 62.9785C61.746 58.8246 65.6738 52.3357 66.6759 45.436C66.726 45.093 66.4867 44.7757 66.1435 44.7257C65.805 44.6761 65.4837 44.9132 65.4336 45.2562C64.505 51.6662 60.9173 57.6978 55.7887 61.6659L46.1189 25.5777C45.9995 25.1321 45.5407 24.8674 45.0948 24.9869C44.6489 25.1064 44.3839 25.565 44.5033 26.0106L49.0739 43.0681C42.4152 41.9471 36.13 38.1735 32.1011 32.7683C31.8954 32.4908 31.5074 32.433 31.2235 32.6388C30.9461 32.8459 30.8879 33.2383 31.0954 33.5169C35.4273 39.3291 42.2483 43.3529 49.4313 44.402L61.1735 88.2247C52.4665 88.8732 43.5638 85.8222 37.1605 79.8815C36.9061 79.6445 36.5075 79.6613 36.276 79.9141C36.0387 80.1684 36.055 80.5653 36.3086 80.7994C43.0219 87.0309 52.3822 90.2339 61.5107 89.4831L71.5807 127.065C59.8269 128.008 47.7798 124.46 38.4403 117.266C38.1663 117.052 37.7715 117.106 37.5607 117.379C37.3485 117.653 37.4005 118.046 37.6751 118.257C47.3191 125.686 59.7752 129.331 71.911 128.298L90.1338 196.306C90.2532 196.751 90.7119 197.016 91.1578 196.896C91.6038 196.777 91.8687 196.318 91.7493 195.873L68.1702 107.875C76.449 101.337 82.886 92.3017 86.3116 82.3373C86.4239 82.0097 86.2491 81.6537 85.9213 81.5416Z" fill="#DFEDF9"/>
<path d="M221.708 201.842C221.624 206.586 217.439 210.157 215.668 214.558C214.019 218.701 214.609 223.336 214.832 227.787C215.069 232.24 214.779 237.111 211.835 240.471C210.439 242.067 208.894 242.928 207.298 243.206C206.836 243.292 206.385 243.324 205.92 243.302C198.183 243.196 189.636 231.162 189.037 225C188.417 218.694 190.404 212.439 192.55 206.468C194.696 200.499 197.05 194.455 197.267 188.113C197.448 182.529 195.954 176.896 196.963 171.399C197.985 165.913 203.087 160.432 208.465 161.95C213.181 163.283 215.091 168.992 215.093 173.878C215.096 178.777 213.963 183.842 215.627 188.432C217.321 193.102 221.782 196.875 221.708 201.842Z" fill="#CADBF1"/>
<path d="M217.092 204.907C214.708 207.993 211.18 210.089 207.341 210.752C207.213 211.196 207.099 211.651 206.972 212.095C206.648 213.25 206.31 214.419 206.027 215.599C204.652 221.244 204.298 227.179 204.95 232.995C208.245 231.359 210.826 228.239 211.783 224.694C211.851 224.439 212.124 224.282 212.392 224.351C212.661 224.419 212.819 224.691 212.738 224.961C211.69 228.88 208.776 232.318 205.087 234.037C205.512 237.259 206.241 240.442 207.272 243.519C206.81 243.605 206.359 243.637 205.894 243.615C203.537 236.398 202.777 228.61 203.702 221.07C199.326 220.003 195.344 217.168 192.981 213.362C192.838 213.128 192.906 212.82 193.139 212.678C193.372 212.522 193.68 212.602 193.823 212.836C196.043 216.395 199.752 219.057 203.82 220.071C204.046 218.456 204.353 216.862 204.738 215.28C205.022 214.099 205.359 212.918 205.695 211.735C206.494 208.902 207.317 205.974 207.475 203.034C207.531 202.142 207.507 201.24 207.457 200.339C203.83 199.692 200.516 197.625 198.36 194.633C198.19 194.415 198.245 194.107 198.463 193.939C198.683 193.784 199.005 193.837 199.159 194.057C201.118 196.764 204.093 198.659 207.375 199.306C207.154 197.191 206.735 195.085 206.331 193.018C206.081 191.793 205.845 190.568 205.634 189.342C204.963 185.281 204.985 181.961 205.693 179.158C202.612 177.254 200.202 174.219 199.09 170.773C198.999 170.511 199.146 170.226 199.409 170.15C199.658 170.06 199.943 170.207 200.034 170.468C201.053 173.6 203.199 176.353 205.971 178.15C206.3 177.128 206.739 176.167 207.286 175.282C207.474 174.969 207.881 174.872 208.195 175.058C208.507 175.245 208.603 175.652 208.418 175.964C206.788 178.635 206.208 181.99 206.6 186.343C208.857 185.32 210.707 183.478 211.743 181.231C211.853 180.975 212.154 180.869 212.398 180.978C212.655 181.1 212.76 181.389 212.651 181.646C211.468 184.216 209.308 186.297 206.71 187.386C206.773 187.955 206.85 188.522 206.941 189.13C207.151 190.341 207.387 191.554 207.636 192.751C208.305 196.123 208.994 199.6 208.807 203.11C208.673 205.347 208.193 207.543 207.63 209.678C211.041 208.98 214.164 207.06 216.308 204.303C216.472 204.083 216.791 204.043 217.01 204.22C217.229 204.384 217.255 204.702 217.092 204.907Z" fill="#DFEDF9"/>
<path d="M207.078 243.575C202.094 243.61 196.256 240.882 193.116 236.63C192.902 236.363 192.714 236.086 192.534 235.797C191.556 234.26 190.935 232.545 190.818 230.714C190.402 224.356 196.091 220.359 201.768 218.965C207.456 217.579 213.824 217.637 218.602 214.496C223.386 211.345 225.765 205.51 227.581 199.779C229.386 194.037 230.941 187.969 234.683 183.583C238.72 178.837 248.947 175.534 254.361 182.774C260.904 191.528 251.905 198.37 247.106 202.715C239.824 209.283 235.804 218.928 230.467 227.343C225.122 235.769 217.413 243.482 207.078 243.575Z" fill="#CADBF1"/>
<path d="M224.918 230.687C221.771 232.167 218.061 232.397 214.759 231.315C213.868 231.014 213.16 230.672 212.603 230.243C212.381 230.074 212.203 229.871 212.024 229.667C208.867 231.138 205.566 232.316 202.35 233.427C199.715 234.348 196.99 235.3 194.399 236.404C194.004 236.569 193.628 236.731 193.254 236.914C193.041 236.647 192.852 236.37 192.672 236.081C193.11 235.882 193.548 235.683 193.996 235.492C196.032 234.631 198.128 233.865 200.2 233.131L200.182 233.067C199.917 229.515 200.393 225.85 201.554 222.491C201.653 222.233 201.927 222.093 202.195 222.182C202.454 222.28 202.594 222.555 202.495 222.814C201.405 225.992 200.948 229.439 201.16 232.798C201.451 232.703 201.738 232.588 202.029 232.494C205.766 231.184 209.644 229.846 213.207 227.999C216.312 226.401 219.203 224.406 221.819 222.115C220.693 219.944 220.362 217.349 220.923 214.967C220.982 214.696 221.244 214.53 221.517 214.589C221.788 214.648 221.948 214.919 221.889 215.191C221.402 217.261 221.667 219.505 222.589 221.42C225.113 219.075 227.372 216.443 229.284 213.545C231.548 210.08 233.378 206.2 235.141 202.45C235.465 201.746 235.791 201.06 236.128 200.363C235.47 199.674 234.921 198.885 234.524 198.029C233.454 195.7 233.458 193.061 233.457 190.733C233.468 190.458 233.687 190.24 233.96 190.232C234.235 190.244 234.454 190.461 234.461 190.735C234.458 192.957 234.446 195.475 235.436 197.607C235.728 198.25 236.126 198.841 236.595 199.385C239.297 193.764 242.344 188.257 247.203 184.293C247.426 184.113 247.732 184.148 247.914 184.371C248.091 184.574 248.048 184.893 247.833 185.062C245.799 186.728 244.108 188.642 242.622 190.747C246.188 191.227 249.912 190.391 252.906 188.391C253.142 188.238 253.445 188.303 253.598 188.537C253.76 188.763 253.688 189.075 253.46 189.218C250.125 191.442 245.943 192.328 241.995 191.671C239.724 195.08 237.905 198.903 236.047 202.863C234.579 205.967 233.064 209.155 231.305 212.136C233.498 211.812 235.631 211.193 237.634 210.222C237.883 210.095 238.181 210.207 238.299 210.447C238.426 210.695 238.312 210.994 238.073 211.11C235.722 212.25 233.221 212.956 230.626 213.237C230.455 213.524 230.294 213.819 230.111 214.08C226.01 220.348 220.316 225.462 213.665 228.885C213.434 229.01 213.193 229.107 212.952 229.224C213.448 229.688 214.12 230.055 215.07 230.366C218.135 231.365 221.573 231.162 224.496 229.778C224.749 229.669 225.036 229.773 225.163 230.022C225.272 230.273 225.167 230.56 224.918 230.687Z" fill="#DFEDF9"/>
<path d="M105.587 191.702C106.187 202.77 95.4041 212.104 96.41 223.188C96.8717 228.276 101.099 237.498 109.093 238.196C109.493 238.237 109.909 238.257 110.329 238.251C111.04 238.223 111.783 238.139 112.562 237.988C122.54 235.956 124.313 224.575 123.665 218.034C122.86 209.805 119.403 201.376 121.14 193.413C122.414 187.575 126.434 182.322 126.832 176.356C127.24 170.392 121.795 162.947 113.558 162.641C105.692 162.346 101.204 168.731 101.547 174.482C101.901 180.234 105.28 185.945 105.587 191.702Z" fill="#CADBF1"/>
<path d="M111.202 215.774C111.224 216.676 111.242 217.6 111.264 218.513C109.895 217.933 108.545 217.022 107.24 215.761C105.851 214.424 104.631 212.853 103.463 211.337C103.314 211.145 103.034 211.101 102.842 211.248C102.649 211.409 102.616 211.68 102.765 211.872C103.954 213.413 105.183 215.011 106.622 216.402C108.126 217.84 109.697 218.872 111.286 219.485C111.337 222.51 111.323 225.581 111.031 228.585C110.702 232.11 110.023 235.29 108.983 238.103C109.383 238.144 109.799 238.163 110.219 238.157C110.774 236.573 111.227 234.873 111.576 233.077C115.41 231.431 118.91 228.955 121.702 225.886C121.862 225.709 121.861 225.42 121.671 225.258C121.494 225.099 121.218 225.102 121.044 225.289C118.467 228.129 115.271 230.427 111.771 232.019C111.944 230.946 112.107 229.848 112.209 228.703C112.618 224.377 112.498 219.991 112.38 215.737C112.348 214.38 112.303 213.021 112.281 211.665C112.255 210.118 112.267 208.564 112.289 207.012C115.177 206.471 117.874 204.896 119.727 202.609C119.877 202.417 119.851 202.138 119.659 201.987C119.47 201.826 119.19 201.852 119.039 202.044C117.351 204.13 114.914 205.58 112.303 206.104C112.436 198.662 113.082 191.228 114.206 183.87C117.603 182.333 120.64 179.831 122.77 176.787C122.923 176.585 122.87 176.314 122.666 176.173C122.473 176.034 122.19 176.072 122.05 176.277C120.109 179.041 117.407 181.321 114.365 182.806C114.91 179.424 115.548 176.058 116.301 172.721C116.365 172.397 116.165 172.077 115.851 172.015C115.516 171.937 115.221 172.14 115.146 172.451C113.762 178.594 112.75 184.809 112.069 191.052C109.461 189.545 107.346 187.135 106.243 184.324C106.16 184.096 105.901 183.994 105.672 184.078C105.441 184.173 105.329 184.429 105.424 184.647C106.647 187.764 109.022 190.419 111.961 192.016C111.293 198.548 111.001 205.118 111.106 211.68C111.125 213.046 111.159 214.404 111.202 215.774Z" fill="#DFEDF9"/>
<path d="M102.431 240.064C107.275 240.59 113.225 238.512 116.7 234.684C116.934 234.447 117.144 234.195 117.347 233.933C118.451 232.533 119.225 230.926 119.518 229.158C120.549 223.012 115.412 218.564 110.027 216.648C104.632 214.739 98.43 214.167 94.0937 210.642C89.75 207.105 88.0111 201.195 86.812 195.438C85.6232 189.677 84.7102 183.621 81.5022 178.984C78.045 173.97 68.4226 169.749 62.4403 176.256C55.2132 184.129 63.2898 191.671 67.5288 196.369C73.9624 203.478 76.9226 213.256 81.2825 221.968C85.6483 230.692 92.3872 238.955 102.431 240.064Z" fill="#CADBF1"/>
<path d="M86.6771 226.029C89.593 227.78 93.1786 228.368 96.4986 227.641C97.3954 227.438 98.1181 227.174 98.7037 226.811C98.9352 226.668 99.1284 226.487 99.3217 226.307C102.249 228.051 105.344 229.522 108.361 230.919C110.833 232.074 113.391 233.27 115.801 234.599C116.17 234.798 116.519 234.994 116.866 235.208C117.1 234.97 117.31 234.718 117.513 234.456C117.108 234.219 116.701 233.981 116.283 233.753C114.388 232.713 112.425 231.762 110.482 230.842L110.506 230.783C111.115 227.355 111.013 223.743 110.215 220.36C110.145 220.1 109.892 219.936 109.623 219.996C109.361 220.066 109.198 220.319 109.269 220.582C110.015 223.78 110.12 227.178 109.581 230.424C109.308 230.303 109.038 230.164 108.766 230.043C105.258 228.4 101.621 226.716 98.3364 224.568C95.4736 222.708 92.8585 220.483 90.5385 217.996C91.8497 215.996 92.4264 213.504 92.1181 211.131C92.0871 210.862 91.8482 210.673 91.5783 210.704C91.3054 210.733 91.124 210.984 91.155 211.254C91.4249 213.316 90.9441 215.473 89.8585 217.243C87.6358 214.714 85.6978 211.932 84.124 208.924C82.2641 205.33 80.8659 201.375 79.5222 197.553C79.2759 196.837 79.0267 196.137 78.7685 195.426C79.478 194.821 80.0886 194.107 80.5591 193.313C81.8305 191.154 82.0857 188.585 82.3172 186.321C82.3334 186.053 82.1447 185.82 81.8777 185.785C81.6093 185.768 81.3762 185.959 81.3408 186.224C81.124 188.387 80.8865 190.837 79.7154 192.813C79.3674 193.409 78.9205 193.945 78.4101 194.429C76.3379 188.694 73.9175 183.038 69.5827 178.702C69.3851 178.506 69.0812 178.51 68.8836 178.707C68.6904 178.889 68.7022 179.201 68.8939 179.388C70.7081 181.21 72.1638 183.238 73.4013 185.431C69.8851 185.547 66.3452 184.367 63.6284 182.127C63.4146 181.954 63.1151 181.987 62.9426 182.2C62.7626 182.404 62.8024 182.715 63.0089 182.875C66.034 185.368 70.0134 186.642 73.919 186.392C75.7921 189.932 77.1845 193.83 78.6004 197.864C79.7214 201.03 80.8806 204.28 82.2966 207.354C80.1978 206.823 78.183 206.01 76.3305 204.868C76.1004 204.72 75.7995 204.8 75.6623 205.021C75.5134 205.251 75.593 205.552 75.8157 205.69C77.9898 207.03 80.3526 207.961 82.8497 208.492C82.9868 208.788 83.1137 209.092 83.2671 209.363C86.6388 215.864 91.6712 221.399 97.804 225.385C98.0149 225.529 98.242 225.647 98.4647 225.786C97.9367 226.188 97.245 226.478 96.2907 226.688C93.2096 227.358 89.8851 226.82 87.1786 225.186C86.9441 225.056 86.6535 225.128 86.506 225.358C86.3762 225.591 86.4485 225.881 86.6771 226.029Z" fill="#DFEDF9"/>
<path d="M241.201 61.5804C235.183 59.863 231.694 53.593 233.408 47.5722C235.126 41.5531 241.396 38.0642 247.416 39.78C253.436 41.4958 256.926 47.7674 255.209 53.7865C253.493 59.8073 247.221 63.2962 241.201 61.5804ZM249.978 30.7922C238.996 27.6611 227.552 34.0271 224.421 45.011C219.472 62.3748 233.799 87.5494 233.799 87.5494C233.799 87.5494 259.837 71.6474 264.196 56.3494C267.328 45.3656 260.962 33.9234 249.978 30.7922Z" fill="#CADBF1"/>
<path d="M249.78 205.37H246.826V215.548H249.78V205.37Z" fill="#FFD06F"/>
<path d="M43.2808 205.289L40.4016 204.432L37.4542 213.509L40.2205 214.608L43.2808 205.289Z" fill="#FFD06F"/>
<path d="M245.977 206.203C245.683 202.641 244.401 199.975 243.102 198.121V191.791C243.102 185.296 206.957 186.519 196.896 186.519C186.834 186.519 177.571 167.994 169.267 161.447C160.961 154.898 147.546 155.697 114.647 155.697C81.7483 155.697 63.8626 186.36 63.8626 186.36C41.3437 193.706 39.7998 228.575 39.7998 228.575L101.712 228.494V236.195H191.785V228.375L243.102 228.308V224.476H245.977C245.977 224.476 246.617 213.935 245.977 206.203Z" fill="#E2B558"/>
<path d="M229.589 229.222C229.589 239.806 221.009 248.385 210.424 248.385C199.84 248.385 191.26 239.806 191.26 229.222C191.26 218.638 199.84 210.057 210.424 210.057C221.009 210.057 229.589 218.638 229.589 229.222Z" fill="#1C3C43"/>
<path d="M220.942 229.119C220.942 234.985 216.186 239.739 210.322 239.739C204.456 239.739 199.701 234.985 199.701 229.119C199.701 223.254 204.456 218.5 210.322 218.5C216.186 218.5 220.942 223.254 220.942 229.119Z" fill="#085868"/>
<path d="M103.918 229.222C103.918 239.806 95.3389 248.385 84.7546 248.385C74.1703 248.385 65.5898 239.806 65.5898 229.222C65.5898 218.638 74.1703 210.057 84.7546 210.057C95.3389 210.057 103.918 218.638 103.918 229.222Z" fill="#1C3C43"/>
<path d="M95.2706 229.119C95.2706 234.985 90.5166 239.739 84.6522 239.739C78.7863 239.739 74.0308 234.985 74.0308 229.119C74.0308 223.254 78.7863 218.5 84.6522 218.5C90.5166 218.5 95.2706 223.254 95.2706 229.119Z" fill="#085868"/>
<path d="M60.1971 224.07C60.7004 220.934 61.8928 217.905 63.5746 215.175C65.2888 212.464 67.5311 210.074 70.1404 208.166C75.393 204.369 82.1803 202.807 88.6006 203.773C95.0239 204.767 101.014 208.324 104.876 213.518C106.807 216.109 108.238 219.059 109.055 222.162C109.834 225.273 110.052 228.519 109.6 231.664C109.974 225.327 108.012 218.963 104.098 214.121C100.233 209.258 94.5392 205.892 88.4085 205.034C82.298 204.019 75.8576 205.497 70.6994 208.969C65.5474 212.454 61.7302 217.91 60.1971 224.07Z" fill="#FFD06F"/>
<path d="M186.281 232.224C185.762 230.612 185.415 228.938 185.257 227.24C185.073 225.542 185.201 223.828 185.3 222.122C185.672 218.704 186.857 215.404 188.514 212.397C190.177 209.385 192.411 206.681 195.032 204.45C197.642 202.215 200.526 200.279 203.654 198.838C209.924 196.01 216.863 194.739 223.697 195.12C230.524 195.51 237.285 197.523 242.985 201.212C240.003 199.609 236.851 198.348 233.592 197.525C230.344 196.664 227.003 196.177 223.655 196.102C216.967 195.931 210.23 197.167 204.191 199.996C198.167 202.776 192.751 207.14 189.361 212.888C185.889 218.549 184.672 225.628 186.281 232.224Z" fill="#FFD06F"/>
<path d="M128.128 188.487C128.39 191.939 128.514 195.39 128.616 198.842C128.732 202.292 128.749 205.744 128.766 209.195C128.751 212.647 128.734 216.099 128.618 219.549L128.441 224.727C128.333 226.452 128.271 228.178 128.128 229.904C127.983 228.178 127.921 226.452 127.813 224.727L127.636 219.549C127.52 216.099 127.503 212.647 127.487 209.195C127.504 205.744 127.521 202.292 127.637 198.842C127.741 195.39 127.864 191.939 128.128 188.487Z" fill="#FFD06F"/>
<path d="M53.8666 218.5H37.6843C35.0967 218.5 33 220.596 33 223.184C33 225.773 35.0967 227.87 37.6843 227.87H53.8666C56.4542 227.87 58.5525 225.773 58.5525 223.184C58.5525 220.596 56.4542 218.5 53.8666 218.5Z" fill="#085868"/>
<path d="M246.282 218.5H233.978C232.011 218.5 230.414 220.596 230.414 223.184C230.414 225.773 232.011 227.87 233.978 227.87H246.282C248.25 227.87 249.845 225.773 249.845 223.184C249.845 220.596 248.25 218.5 246.282 218.5Z" fill="#085868"/>
<path d="M83.635 181.554H120.148C122.031 181.554 123.556 180.028 123.556 178.147V165.638C123.556 163.755 122.031 162.229 120.148 162.229H110.135C102.086 162.229 94.3974 165.55 88.8768 171.408L82.2785 178.413C81.1589 179.601 82.0013 181.554 83.635 181.554Z" fill="black"/>
<path d="M152.585 182.353H136.062C133.657 182.353 131.707 180.403 131.707 177.998V166.586C131.707 164.181 133.657 162.229 136.062 162.229H152.585C154.989 162.229 156.941 164.181 156.941 166.586V177.998C156.941 180.403 154.989 182.353 152.585 182.353Z" fill="black"/>
<path d="M45.5772 204.586L41.9102 203.494L38.1581 215.056L41.6794 216.457L45.5772 204.586Z" fill="#085868"/>
<path d="M248.141 203.494H245.185V216.869H248.141V203.494Z" fill="#085868"/>
<path d="M177.299 154.176C177.299 154.176 171.556 185.943 179.196 199.851C179.196 199.851 164.942 211.022 159.373 245.737L162.199 246.09C162.199 246.09 200.825 207.457 206.338 157.805L196.942 148.162L177.299 154.176Z" fill="#1C3C43"/>
<path d="M189.798 159.26C189.798 159.26 199.003 167.418 193.691 252.094L190.215 252.289C190.215 252.289 174.206 229.821 176.352 209.564C176.352 209.564 167.852 202.605 161.906 186.519C157.178 173.728 159.025 159.379 159.025 159.379L168.77 150.975L189.798 159.26Z" fill="#085868"/>
<path d="M159.539 243.823L156.326 249.274L168.85 255.341L162.698 245.243L159.539 243.823Z" fill="#1C3C43"/>
<path d="M190.254 252.423L189.853 258.739L203.765 258.487L193.713 252.26L190.254 252.423Z" fill="#1C3C43"/>
<path d="M216.347 157.611C216.819 159.058 218.381 164.562 220.96 163.382C223.537 162.201 226.272 160.113 225.974 158.394C225.676 156.676 220.757 154.071 220.757 154.071L217.049 153.788L216.347 157.611Z" fill="#F59DB0"/>
<path d="M185.298 95.9759C170.397 123.029 205.194 151.612 216.379 157.529L220.878 154C220.878 154 203.868 140.915 197.5 97.9998C197.056 94.9956 187.643 91.7205 185.298 95.9759Z" fill="#1F87FE"/>
<path d="M158.845 161.072C158.845 161.072 170.106 165.03 187.491 165.03C204.878 165.03 206.15 160.83 206.15 160.83C206.15 160.83 212.615 92.6463 186.643 90.1005C163.958 87.8768 156.511 129.056 158.845 161.072Z" fill="#4285F4"/>
<path d="M197.028 79.7262C197.444 87.7988 193.136 94.5814 187.408 94.8771C181.679 95.1729 176.697 88.8672 176.282 80.7947C175.866 72.7221 180.172 65.938 185.903 65.6422C191.631 65.348 196.613 71.6537 197.028 79.7262Z" fill="#F59DB0"/>
<path d="M177.561 86.77C177.561 86.77 181.934 79.3896 181.442 72.0666C181.442 72.0666 188.895 77.8829 198.444 74.5597C207.996 71.235 187.176 56.386 177.644 66.0257C169.134 74.634 175.906 84.3279 177.561 86.77Z" fill="#342A59"/>
<path d="M189.362 103.109C189.362 103.109 173.375 118.137 172.197 139.089C170.973 160.806 172.654 167.54 172.654 167.54L166.997 167.553C160.27 150.403 154.766 125.787 172.256 100.331" fill="#4285F4"/>
<path d="M164.369 160.429L164.12 160.246C158.218 141.373 159.166 124.576 167.02 108.889L167.367 108.773L167.483 109.121C159.693 124.679 158.756 141.354 164.615 160.093L164.445 160.417L164.369 160.429Z" fill="#3164B9"/>
<path d="M171.765 161.403L171.506 161.156C171.203 155.399 171.293 148.118 171.78 139.512C172.442 127.759 177.769 117.872 182.12 111.65L182.482 111.584L182.548 111.945C178.233 118.115 172.953 127.909 172.299 139.54C171.811 148.129 171.722 155.391 172.025 161.129C172.033 161.273 171.92 161.393 171.78 161.403H171.765Z" fill="#3164B9"/>
<path d="M220.264 157.995H177.934C174.656 157.995 172 160.649 172 163.925V198.15C172 201.425 174.656 204.079 177.934 204.079H220.264C223.541 204.079 226.199 201.425 226.199 198.15V163.925C226.199 160.649 223.541 157.995 220.264 157.995Z" fill="#FFD06F"/>
<path d="M185.328 157.995H181.375V204.079H185.328V157.995Z" fill="#E2B558"/>
<path d="M216.968 157.995H213.016V204.079H216.968V157.995Z" fill="#E2B558"/>
<path d="M196.152 168.299L188.641 169.795L193.694 175.548L196.152 168.299Z" fill="#E2B558"/>
<path d="M208.662 180.271C208.662 182.228 206.699 183.812 204.277 183.812C201.855 183.812 199.891 182.228 199.891 180.271C199.891 178.315 201.855 176.729 204.277 176.729C206.699 176.729 208.662 178.315 208.662 180.271Z" fill="#E2B558"/>
<path d="M199.713 195.926L194.997 199.718L189.344 192.702L194.059 188.909L199.713 195.926Z" fill="#E2B558"/>
<path d="M224.908 167.893L173.529 168.08C172.779 168.082 172.173 168.478 172.175 168.964L172.197 175.096C172.199 175.582 172.808 175.973 173.557 175.97L224.937 175.784C225.686 175.781 226.292 175.385 226.29 174.9L226.268 168.767C226.266 168.282 225.657 167.89 224.908 167.893Z" fill="#E2B558"/>
<path d="M167.26 167.007C166.761 168.457 164.693 173.819 167.26 174.517C169.829 175.216 173.038 175.295 173.822 173.74C174.607 172.187 172.538 166.995 172.538 166.995L169.733 166.995L167.26 167.007Z" fill="#F59DB0"/>
</svg>
